PathFileType	4	(X/Y/Z)	C:/Users/opensim2020/Desktop/walking_exp_matlab/subject03_walking14_straight_01.trc																																																																																																																																											
DataRate	CameraRate	NumFrames	NumMarkers	Units	OrigDataRate	OrigDataStartFrame	OrigNumFrames																																																																																																																																							
100	100	8	47	mm	100	578	205																																																																																																																																							
Frame#	Time	LFHD			RFHD			LBHD			RBHD			C7			T10			CLAV			STRN			RBAK			LSHO			LUPA			LELB			LFRM			LWRA			LWRB			LFIN			RSHO			RUPA			RELB			RFRM			RWRA			RWRB			RFIN			LASI			RASI			LPSI			RPSI			LTHI			LKNE			LTIB			LANK			LHEE			LTOE			RTHI			RKNE			RTIB			RANK			RHEE			RTOE			*39			*40			*41			*42			*43			*44			*45			*46		
		X1	Y1	Z1	X2	Y2	Z2	X3	Y3	Z3	X4	Y4	Z4	X5	Y5	Z5	X6	Y6	Z6	X7	Y7	Z7	X8	Y8	Z8	X9	Y9	Z9	X10	Y10	Z10	X11	Y11	Z11	X12	Y12	Z12	X13	Y13	Z13	X14	Y14	Z14	X15	Y15	Z15	X16	Y16	Z16	X17	Y17	Z17	X18	Y18	Z18	X19	Y19	Z19	X20	Y20	Z20	X21	Y21	Z21	X22	Y22	Z22	X23	Y23	Z23	X24	Y24	Z24	X25	Y25	Z25	X26	Y26	Z26	X27	Y27	Z27	X28	Y28	Z28	X29	Y29	Z29	X30	Y30	Z30	X31	Y31	Z31	X32	Y32	Z32	X33	Y33	Z33	X34	Y34	Z34	X35	Y35	Z35	X36	Y36	Z36	X37	Y37	Z37	X38	Y38	Z38	X39	Y39	Z39	X40	Y40	Z40	X41	Y41	Z41	X42	Y42	Z42	X43	Y43	Z43	X44	Y44	Z44	X45	Y45	Z45	X46	Y46	Z46	X47	Y47	Z47
																																																																																																																																														
103	1.02	-87.59336	1614.47644	1384.30286	-99.97965	1613.50293	1517.23022	-212.10396	1562.29089	1376.23621	-220.24849	1561.43213	1507.37683	-243.45964	1401.30029	1427.40771	-270.1405	1088.7561	1429.01685	-119.60684	1331.14771	1436.49683	-68.34287	1166.86096	1430.57239	-295.08932	1220.49951	1511.80811	-157.64297	1369.8949	1280.59705	-118.36012	1188.18958	1198.2981	-67.78526	1079.30383	1183.62097	33.16137	1007.87122	1204.00623	123.91596	948.63342	1256.83044	113.37814	926.96643	1207.18054	186.83658	897.36316	1230.01501	-181.23572	1348.10156	1592.7594	-206.64307	1126.79395	1662.17126	-206.07968	1013.54681	1676.2998	-218.33066	876.41266	1681.6488	-208.77757	774.97485	1650.65771	-242.45813	778.52399	1693.45886	-237.9203	702.82343	1683.84412	-110.4211	924.76953	1315.10632	-101.60405	931.32996	1552.69678	-271.33002	946.37952	1374.54041	-265.83768	951.67389	1521.52625	-215.72159	634.51337	1270.29993	-257.78525	458.28769	1296.81775	-395.54971	308.7048	1294.07117	-516.34637	135.95763	1331.86194	-567.49127	126.8536	1366.91577	-403.3602	33.65294	1363.93542	-88.96156	640.91754	1600.58557	-20.61724	479.72849	1556.87329	-13.65046	286.22	1562.5647	23.69223	71.9807	1520.06091	-16.95513	38.07534	1466.3418	165.12579	45.77179	1496.96472	NaN	NaN	NaN	NaN	NaN	NaN	NaN	NaN	NaN	NaN	NaN	NaN	NaN	NaN	NaN	NaN	NaN	NaN	NaN	NaN	NaN	NaN	NaN	NaN
104	1.03	-74.13539	1615.82703	1384.84644	-86.01192	1615.32593	1517.88013	-198.72224	1564.04871	1377.45459	-206.15878	1563.58472	1508.55164	-230.09473	1402.9209	1429.69385	-255.59792	1089.96716	1430.47192	-106.18201	1333.01428	1437.7627	-54.1616	1168.90112	1431.67102	-280.84503	1221.45264	1514.06628	-145.67577	1371.50037	1281.86414	-107.61121	1189.26978	1199.64819	-57.89275	1080.02893	1185.01587	42.83099	1008.427	1205.02307	133.84563	950.17938	1257.55542	122.97172	927.39447	1208.61877	196.98058	899.53015	1230.90723	-166.88467	1349.65454	1594.45422	-191.81903	1128.32898	1663.7937	-191.28314	1014.94733	1677.71045	-203.55592	877.80133	1682.78296	-194.16461	776.43896	1651.66992	-227.70752	779.91919	1694.57385	-223.43326	704.24451	1684.64746	-95.10213	925.87561	1316.73743	-86.13779	933.17078	1554.10596	-255.9707	947.28583	1376.21509	-249.97816	953.38751	1523.27209	-197.01886	634.46161	1270.22192	-236.49899	457.52402	1294.21899	-379.38815	311.98911	1293.49426	-506.45166	144.69887	1332.61682	-556.79242	139.15553	1368.49011	-402.32446	33.64703	1364.15845	-76.51841	642.36121	1602.54004	-8.91546	480.4368	1558.49829	-3.22	287.00439	1564.41821	27.59107	72.14688	1520.14795	-14.39365	39.64708	1467.22363	168.84689	42.98383	1498.9989	NaN	NaN	NaN	NaN	NaN	NaN	NaN	NaN	NaN	NaN	NaN	NaN	NaN	NaN	NaN	NaN	NaN	NaN	NaN	NaN	NaN	NaN	NaN	NaN
105	1.04	-60.67363	1617.33167	1385.54968	-72.10579	1617.16968	1518.5354	-185.43739	1565.87671	1378.64026	-192.1333	1565.75891	1509.66553	-216.51883	1404.58618	1431.87988	-241.19524	1091.29675	1432.32703	-92.72347	1334.95752	1439.01831	-39.92306	1171.16577	1432.71338	-266.43634	1222.81531	1516.7041	-133.78531	1373.38928	1283.22278	-96.83897	1190.70984	1201.15405	-48.46106	1080.77271	1186.31848	52.11824	1008.83319	1206.01624	143.24713	950.94	1258.04175	131.70761	927.10706	1209.71765	206.17342	900.73236	1231.37305	-152.3524	1351.54102	1596.06824	-176.6682	1130.15283	1665.47961	-176.03546	1016.76855	1679.09717	-188.21959	879.58337	1684.02771	-178.84113	778.29047	1652.56995	-212.17529	781.67383	1695.7229	-208.16837	705.89044	1685.42859	-80.15762	927.08942	1317.95996	-70.80051	935.29193	1555.42493	-240.71114	948.22638	1377.91113	-234.24503	955.50989	1524.99731	-177.68022	634.26569	1270.03381	-213.91827	456.24396	1291.71887	-361.46414	315.452	1292.97498	-494.2099	153.9313	1333.68481	-543.2453	152.29572	1370.9574	-400.95679	33.4418	1364.61243	-65.68123	643.34247	1604.12439	3.08281	481.3157	1559.78992	5.66366	287.51398	1565.56555	28.6775	72.19303	1519.74329	-13.92617	39.86493	1467.20764	169.89459	40.94008	1499.67029	-149.54636	1673.40894	1431.61389	NaN	NaN	NaN	NaN	NaN	NaN	NaN	NaN	NaN	NaN	NaN	NaN	NaN	NaN	NaN	NaN	NaN	NaN	NaN	NaN	NaN
106	1.05	-47.29949	1618.76196	1386.19238	-58.38201	1618.84229	1519.0387	-172.20555	1567.6626	1379.8396	-178.46611	1567.88721	1510.83447	-203.00813	1406.35522	1434.06152	-226.87961	1092.75488	1434.37134	-79.24757	1336.83594	1440.17932	-25.83727	1173.28198	1433.71594	-252.01144	1224.53711	1519.66736	-121.9375	1375.44629	1284.74658	-86.12178	1192.21387	1202.8634	-39.22823	1081.8291	1187.93726	60.73146	1008.85999	1206.90686	151.91638	951.08429	1258.35657	139.68517	926.32678	1210.69324	214.54733	900.99969	1231.49316	-137.58922	1353.57874	1597.70215	-161.20076	1132.21326	1667.17432	-160.44081	1018.83856	1680.5614	-172.2496	881.63025	1685.3092	-162.89879	780.4837	1653.62891	-195.95499	783.62799	1697.00977	-191.98198	707.76703	1686.39209	-64.71125	928.98206	1320.25391	-55.81601	937.49152	1556.52087	-225.50024	949.31	1379.42969	-218.87166	958.06683	1526.59839	-157.56654	633.79681	1269.97742	-189.87579	455.06757	1289.14807	-341.72446	318.87347	1292.52417	-479.12204	162.79584	1334.77576	-526.34558	165.30415	1373.50049	-398.80179	33.53342	1365.62866	-54.74205	644.27728	1604.81641	14.7301	482.15439	1560.62976	12.6565	287.48676	1566.18579	29.41284	72.39461	1519.21753	-13.89086	39.9544	1467.41736	170.79599	39.75191	1497.04407	NaN	NaN	NaN	NaN	NaN	NaN	NaN	NaN	NaN	NaN	NaN	NaN	NaN	NaN	NaN	NaN	NaN	NaN	NaN	NaN	NaN	NaN	NaN	NaN
107	1.06	-33.93954	1620.22876	1386.79724	-44.57831	1620.53528	1519.77161	-158.96446	1569.3927	1380.94153	-165.0336	1569.80847	1512.0033	-189.47154	1407.84729	1436.19006	-212.53941	1094.06177	1436.37085	-65.61071	1338.6405	1441.43994	-11.82869	1175.24683	1434.68298	-237.40997	1226.25342	1522.73523	-110.13113	1377.41821	1286.40454	-75.62407	1193.69934	1204.61047	-30.28742	1082.76147	1189.7019	68.89612	1008.62274	1207.86292	160.13113	950.5625	1258.55591	147.07033	925.08826	1211.47241	222.17474	900.16772	1231.32043	-122.70975	1355.72974	1599.16736	-145.4617	1134.34229	1668.95496	-144.36945	1020.9516	1682.00024	-155.70193	883.80646	1686.76221	-146.39984	782.6582	1654.67468	-179.10017	785.67322	1698.55615	-175.18771	709.5119	1687.32239	-50.06557	930.41461	1321.98767	-41.12424	939.65448	1557.5592	-210.43822	950.43518	1380.68396	-203.8625	960.78857	1527.90698	-136.97572	633.17194	1269.70691	-164.79153	453.84302	1287.27808	-320.11118	322.16504	1292.23315	-461.32004	170.44019	1334.9353	-506.83649	178.32878	1375.29346	-397.54434	33.05362	1367.24243	-42.56053	645.56	1605.09094	25.46605	482.65424	1561.06335	18.08311	287.76901	1565.84204	30.44883	72.57152	1518.41553	-13.71105	40.08305	1467.33521	171.63496	38.9446	1496.16772	NaN	NaN	NaN	NaN	NaN	NaN	NaN	NaN	NaN	NaN	NaN	NaN	NaN	NaN	NaN	NaN	NaN	NaN	NaN	NaN	NaN	NaN	NaN	NaN
108	1.07	-20.68322	1621.32776	1387.38757	-30.96783	1621.95068	1520.40186	-145.81055	1570.8175	1381.9906	-151.57227	1571.51843	1513.08521	-176.10014	1409.08508	1438.29199	-198.51564	1095.40918	1438.36401	-52.06722	1340.06653	1442.51062	2.06272	1176.91199	1435.48279	-222.96916	1228.08875	1525.87317	-98.2086	1379.23035	1288.06555	-65.45856	1194.99719	1206.41748	-21.56803	1083.56604	1191.57666	76.90476	1008.1405	1208.76343	167.83611	949.29938	1258.77185	153.94891	923.42902	1212.11694	229.13023	898.30707	1230.9342	-107.7179	1357.72095	1600.59705	-129.55148	1136.41699	1670.77954	-128.10144	1023.03467	1683.58398	-138.71767	885.83032	1688.25171	-129.26843	784.71393	1655.75891	-161.47823	787.56305	1700.01062	-157.74438	711.05432	1688.02295	-35.73549	931.60339	1323.97034	-26.73936	941.74457	1558.66162	-195.93503	951.5567	1381.53418	-189.3811	963.63678	1528.6333	-116.1224	632.13293	1269.71411	-139.22978	452.50867	1286.53711	-296.69882	324.98486	1292.71436	-441.15701	176.81392	1333.95447	-485.50589	191.22578	1374.73792	-393.13132	35.15182	1366.91528	-29.25697	647.38806	1606.05579	34.94003	482.92804	1561.68762	22.80198	287.96146	1566.33948	30.85182	72.54868	1518.0686	-13.59627	40.17953	1467.12585	171.95586	38.43527	1496.65894	NaN	NaN	NaN	NaN	NaN	NaN	NaN	NaN	NaN	NaN	NaN	NaN	NaN	NaN	NaN	NaN	NaN	NaN	NaN	NaN	NaN	NaN	NaN	NaN
109	1.08	-7.44092	1622.41736	1387.89685	-17.43146	1623.2395	1520.98511	-132.70914	1572.02063	1382.94897	-138.161	1572.90247	1514.14734	-162.71846	1409.96082	1440.44312	-184.53465	1096.46814	1440.3479	-38.46757	1341.3916	1443.58997	15.81552	1178.36841	1436.245	-208.43547	1229.80481	1528.93213	-86.40591	1380.7616	1289.63599	-55.47503	1195.95264	1208.08057	-13.22612	1084.12097	1193.42676	84.57073	1007.22705	1209.70349	175.41289	947.42822	1259.02222	160.63116	921.45758	1212.75293	235.6297	895.41345	1230.50452	-92.62241	1359.51196	1601.92725	-113.50323	1138.28564	1672.67273	-111.56641	1024.95752	1685.3313	-121.29198	887.66888	1689.89636	-111.4619	786.61951	1657.08215	-143.24365	789.13721	1701.54883	-139.51295	712.64575	1689.26086	-21.68961	932.61121	1325.24915	-12.67188	943.60565	1559.84204	-182.12117	952.54132	1382.06689	-175.48119	966.14758	1529.23096	-95.52485	630.78729	1270.00317	-113.09196	451.02063	1286.3573	-271.73911	327.23465	1293.09741	-420.24512	183.43359	1333.10242	-463.20456	203.24254	1373.43018	-382.88232	40.62816	1365.96716	-16.14377	649.33368	1607.8573	43.00403	482.96378	1562.81799	26.83008	288.00409	1567.04224	30.79237	72.75404	1518.50854	-13.68355	40.20063	1467.14063	172.03085	38.11846	1496.5238	NaN	NaN	NaN	NaN	NaN	NaN	NaN	NaN	NaN	NaN	NaN	NaN	NaN	NaN	NaN	NaN	NaN	NaN	NaN	NaN	NaN	NaN	NaN	NaN
110	1.09	5.80159	1623.54919	1388.32288	-3.90055	1624.65088	1521.46228	-119.57369	1572.98206	1383.89075	-124.55202	1574.21155	1515.07263	-149.56555	1410.90393	1442.3717	-170.71245	1097.6532	1442.16492	-24.95558	1342.55042	1444.50244	29.36081	1179.62146	1436.84058	-193.82433	1231.40771	1531.91577	-74.51658	1382.00659	1291.14905	-46.14127	1196.51428	1209.83325	-4.84608	1084.10315	1195.22205	92.06958	1005.87189	1210.58032	182.50754	944.80719	1259.17041	166.97353	918.95569	1213.26208	241.59151	891.52863	1230.02734	-77.393	1361.08911	1603.29285	-97.20276	1139.90784	1674.66577	-94.83172	1026.57104	1687.17346	-103.38738	889.20178	1691.60632	-92.93139	788.35022	1658.50061	-124.46969	790.47168	1703.30945	-120.27689	714.19031	1690.98242	-8.05697	933.40228	1326.39429	1.13592	945.25354	1560.97583	-168.35568	953.16766	1382.44275	-161.74771	968.15436	1529.68982	-75.57537	629.33472	1270.37769	-86.58598	449.35043	1286.47632	-245.78641	328.63211	1292.35767	-399.19293	191.30704	1333.82971	-441.67313	212.1489	1374.40198	-365.26691	47.09682	1363.81604	-4.55858	651.02856	1609.91418	49.74245	482.81912	1564.4436	30.28053	288.01477	1568.09106	30.27679	72.9044	1517.92798	-13.81096	40.33885	1467.34241	172.0312	37.90264	1496.57495	NaN	NaN	NaN	NaN	NaN	NaN	NaN	NaN	NaN	NaN	NaN	NaN	NaN	NaN	NaN	NaN	NaN	NaN	NaN	NaN	NaN	NaN	NaN	NaN
